<svg width="300" height="300" viewBox="0 0 300 300" fill="none" xmlns="http://www.w3.org/2000/svg">
<g clip-path="url(#clip0_608_1549)">
<path fill-rule="evenodd" clip-rule="evenodd" d="M149.492 49.8007C117.966 49.8007 65.5932 61.4209 65.5932 134.877C65.7039 134.877 65.8134 134.877 65.9217 134.877C64.0453 146.348 63.4674 157.728 64.7739 167.559C68.0281 192.044 99.0112 210.616 114.096 216.841C119.011 218.916 133.113 223.066 150.198 223.066C167.282 223.066 181.384 218.916 186.299 216.841C201.384 210.616 232.367 192.044 235.621 167.559C236.939 157.646 236.33 146.167 234.407 134.609C234.279 61.3926 181.995 49.8007 150.508 49.8007H149.492Z" fill="#FFDCBC"/>
<path fill-rule="evenodd" clip-rule="evenodd" d="M97.9999 69.5C97.9999 76.3333 98.7999 90.6 102 93C105.2 95.4 134 100 149 100C164 100 191.971 95.4 195.171 93C198.371 90.6 199.171 76.3333 199.171 69.5C207.931 94.9459 220.019 141.952 222.451 187.685C211.405 199.544 195.634 208.182 186.194 212C181.361 214 167.494 218 150.694 218C133.894 218 120.028 214 115.194 212C104.562 207.699 85.8972 197.284 74.9995 183.039C77.9661 138.795 89.5363 94.0849 97.9999 69.5ZM83.0989 262.432C83.1228 262.497 83.1467 262.562 83.1707 262.626C70.4471 262.251 42.8999 254.6 34.4999 227C23.9999 192.5 40.364 71.233 80.4999 47C107 31 121 31 148.5 31C176 31 190 31 216.5 47C256.636 71.233 273.171 192.5 262.671 227C254.271 254.6 226.724 262.251 214 262.626C214.057 262.472 214.115 262.317 214.171 262.162L214 262.5C204.5 256 180.2 242.5 149 242.5C117.908 242.5 92.6747 255.907 83.0989 262.432Z" fill="#4E260F"/>
<path d="M129.83 137.088C129.83 149.846 120.822 159.951 109.983 159.951C99.1441 159.951 90.1355 149.846 90.1355 137.088C90.1355 124.33 99.1441 114.225 109.983 114.225C120.822 114.225 129.83 124.33 129.83 137.088Z" fill="white" stroke="#8C501D" stroke-width="2"/>
<ellipse cx="115.576" cy="136.05" rx="15.2542" ry="17.6378" fill="#8C501D"/>
<line x1="109.491" y1="113.263" x2="109.491" y2="108" stroke="#8C501D" stroke-width="2" stroke-linecap="round"/>
<line x1="1" y1="-1" x2="6.22688" y2="-1" transform="matrix(0.492511 -0.870306 0.861636 0.507526 121.678 118.477)" stroke="#8C501D" stroke-width="2" stroke-linecap="round"/>
<line x1="1" y1="-1" x2="6.22688" y2="-1" transform="matrix(-0.492511 -0.870306 -0.861636 0.507526 98.7966 118.477)" stroke="#8C501D" stroke-width="2" stroke-linecap="round"/>
<path d="M207.119 137.088C207.119 149.846 198.11 159.951 187.271 159.951C176.432 159.951 167.424 149.846 167.424 137.088C167.424 124.33 176.432 114.225 187.271 114.225C198.11 114.225 207.119 124.33 207.119 137.088Z" fill="white" stroke="#8C501D" stroke-width="2"/>
<ellipse cx="192.864" cy="136.05" rx="15.2542" ry="17.6378" fill="#8C501D"/>
<line x1="186.78" y1="113.263" x2="186.78" y2="108" stroke="#8C501D" stroke-width="2" stroke-linecap="round"/>
<line x1="1" y1="-1" x2="6.22688" y2="-1" transform="matrix(0.492511 -0.870306 0.861636 0.507527 198.966 118.477)" stroke="#8C501D" stroke-width="2" stroke-linecap="round"/>
<line x1="1" y1="-1" x2="6.22688" y2="-1" transform="matrix(-0.492511 -0.870306 -0.861636 0.507527 176.085 118.477)" stroke="#8C501D" stroke-width="2" stroke-linecap="round"/>
<path d="M164.763 184.075C164.763 190.378 159.071 195.488 152.051 195.488C145.03 195.488 139.339 190.378 139.339 184.075" stroke="#841616" stroke-width="3" stroke-linecap="round"/>
<circle cx="152" cy="161" r="7" fill="#F0A06F"/>
<path fill-rule="evenodd" clip-rule="evenodd" d="M127.478 228.466C116.414 230.633 97.7391 239.54 79.8306 264.239C64.6483 285.178 54.7452 298.072 47.3342 306.893C46.6512 306.816 45.9572 306.777 45.2542 306.777C34.8638 306.777 26.4407 315.37 26.4407 325.971C26.4407 336.572 34.8638 345.165 45.2542 345.165C55.6447 345.165 64.0678 336.572 64.0678 325.971C64.0678 323.341 63.5492 320.834 62.6105 318.551C76.6959 304.054 97.1394 283.476 109.681 276.17C105.406 290.771 94.7605 350.886 109.681 387.184H145.932L152.288 363.322L159.153 387.184H194.896C209.816 350.886 199.17 290.771 194.896 276.17C206.857 283.138 227.058 303.252 241.615 318.179C240.577 320.56 240 323.197 240 325.971C240 336.572 248.423 345.165 258.813 345.165C269.204 345.165 277.627 336.572 277.627 325.971C277.627 315.37 269.204 306.777 258.813 306.777C258.341 306.777 257.872 306.795 257.408 306.83C249.542 297.448 239.058 283.978 224.746 264.239C206.177 238.629 186.785 229.997 175.907 228.253C169.315 229.752 160.727 231.038 151.215 231.038C142.155 231.038 133.935 229.871 127.478 228.466Z" fill="#FFDCBC"/>
<g style="mix-blend-mode:lighten" filter="url(#filter0_f_608_1549)">
<path fill-rule="evenodd" clip-rule="evenodd" d="M183.192 205.392C182.182 211.133 179.703 219.702 178.525 223.776C178.095 225.259 177.785 227.873 177.425 230.906C176.525 238.48 175.316 248.661 171.176 250.319C165.379 252.641 158.802 253.864 152.108 253.864C145.414 253.864 138.838 252.641 133.04 250.319C127.243 247.997 125.668 234.67 125.668 224.813C125.668 218.969 123.871 213.845 122.409 209.674C121.866 208.127 121.369 206.71 121.028 205.437C123.498 204.552 125.764 203.944 127.775 203.558C134.124 204.913 142.208 206.037 151.116 206.037C160.47 206.037 168.914 204.797 175.396 203.353C177.652 203.707 180.279 204.357 183.192 205.392Z" fill="#FFDCBC"/>
</g>
<mask id="mask0_608_1549" style="mask-type:alpha" maskUnits="userSpaceOnUse" x="101" y="227" width="103" height="105">
<path d="M152.5 234.5C138 234.5 133.667 230 127.5 227.5C124.667 228.167 117.9 230.4 115.5 232C115.205 244.469 114.846 269.163 110 274C109 279 101.505 320.077 102 327.5C113 330 138.9 331.5 152.5 331.5C166.1 331.5 192 330 203 327.5C204.2 321.5 198.333 289 195.5 274C191.5 268 190.167 243.5 190 232C187.6 230.4 180.333 228.167 177.5 227.5C171.333 230 167 234.5 152.5 234.5Z" fill="black"/>
</mask>
<g mask="url(#mask0_608_1549)">
<rect x="45" y="217" width="213" height="163" fill="#FFE072"/>
<rect x="109.459" y="253.858" width="9" height="119.213" transform="rotate(-45 109.459 253.858)" fill="#3B7D24" fill-opacity="0.8"/>
<rect x="137.292" y="229.364" width="9" height="93.0097" transform="rotate(-45 137.292 229.364)" fill="#3B7D24" fill-opacity="0.8"/>
<rect x="100.823" y="297.548" width="9" height="59.7245" transform="rotate(-45 100.823 297.548)" fill="#3B7D24" fill-opacity="0.8"/>
<rect x="196.349" y="234.681" width="9" height="134.6" transform="rotate(45 196.349 234.681)" fill="#3B7D24" fill-opacity="0.8"/>
<rect x="201.449" y="281.907" width="9" height="72.9442" transform="rotate(45 201.449 281.907)" fill="#3B7D24" fill-opacity="0.8"/>
<rect x="153.464" y="225.241" width="9" height="74.6543" transform="rotate(45 153.464 225.241)" fill="#3B7D24" fill-opacity="0.8"/>
<rect x="105.785" y="274.225" width="6" height="95.0773" transform="rotate(-45 105.785 274.225)" fill="#FFA825" fill-opacity="0.8"/>
<rect x="114.921" y="231.035" width="6" height="130.308" transform="rotate(-45 114.921 231.035)" fill="#FFA825" fill-opacity="0.8"/>
<rect x="165.789" y="229.577" width="6" height="42.0196" transform="rotate(-45 165.789 229.577)" fill="#FFA825" fill-opacity="0.8"/>
<rect x="128.571" y="339.229" width="6" height="102.688" transform="rotate(-135 128.571 339.229)" fill="#FFA825" fill-opacity="0.8"/>
<rect x="103.243" y="312.231" width="6" height="118.672" transform="rotate(-135 103.243 312.231)" fill="#FFA825" fill-opacity="0.8"/>
<rect x="114.971" y="248.177" width="6" height="28.3278" transform="rotate(-135 114.971 248.177)" fill="#FFA825" fill-opacity="0.8"/>
</g>
<g opacity="0.7" filter="url(#filter1_f_608_1549)">
<ellipse cx="88.5" cy="177.5" rx="12.5" ry="10.5" fill="#FFBAA5"/>
<ellipse cx="208.5" cy="177.5" rx="12.5" ry="10.5" fill="#FFBAA5"/>
</g>
</g>
<defs>
<filter id="filter0_f_608_1549" x="119.028" y="201.353" width="66.1641" height="54.5108" filterUnits="userSpaceOnUse" color-interpolation-filters="sRGB">
<feFlood flood-opacity="0" result="BackgroundImageFix"/>
<feBlend mode="normal" in="SourceGraphic" in2="BackgroundImageFix" result="shape"/>
<feGaussianBlur stdDeviation="1" result="effect1_foregroundBlur_608_1549"/>
</filter>
<filter id="filter1_f_608_1549" x="59" y="157" width="172" height="44" filterUnits="userSpaceOnUse" color-interpolation-filters="sRGB">
<feFlood flood-opacity="0" result="BackgroundImageFix"/>
<feBlend mode="normal" in="SourceGraphic" in2="BackgroundImageFix" result="shape"/>
<feGaussianBlur stdDeviation="2.5" result="effect1_foregroundBlur_608_1549"/>
</filter>
<clipPath id="clip0_608_1549">
<rect width="300" height="300" fill="white"/>
</clipPath>
</defs>
</svg>
